#!Matlab matrix to amc conversion
:FULLY-SPECIFIED
:DEGREES
1
root 9.287220 16.950000 -34.276200 0.000000 0.000000 0.000000
lowerback 0.000000 0.000000 0.000000
upperback 0.000000 0.000000 0.000000
thorax 0.000000 0.000000 0.000000
lowerneck -16.000000 0.000000 0.000000
upperneck 21.000000 0.000000 0.000000
head 11.000000 0.000000 0.000000
rclavicle 0.000000 0.000000
rhumerus 0.000000 0.000000 0.000000
rradius 0.000000
rwrist 0.000000
rhand 0.000000 0.000000
rfingers 0.000000
rthumb 0.000000 0.000000
lclavicle 0.000000 0.000000
lhumerus 0.000000 0.000000 0.000000
lradius 0.000000
lwrist 0.000000
lhand 0.000000 0.000000
lfingers 0.000000
lthumb 0.000000 0.000000
rfemur 0.000000 0.000000 21.000000
rtibia 0.000000
rfoot 0.000000 0.000000
rtoes 0.000000
lfemur 0.000000 0.000000 -21.000000
ltibia 0.000000
lfoot 0.000000 0.000000
ltoes 0.000000
2
root 9.287220 16.950000 -34.276200 1.575439 1.634016 -0.273095
lowerback 15.338906 -0.540157 -4.667678
upperback -0.046355 -1.530133 1.091226
thorax -8.394428 -0.478376 4.375837
lowerneck -13.754259 0.149161 -1.605841
upperneck 24.995614 1.472946 -3.515493
head 10.458263 0.137180 -0.783615
rclavicle -0.000000 0.000000
rhumerus -33.417613 -7.710874 -79.861549
rradius 34.418116
rwrist -2.486888
rhand -11.365758 10.041004
rfingers 7.125020
rthumb 14.650943 -19.386882
lclavicle -0.000000 0.000000
lhumerus -31.183681 3.091255 83.729497
lradius 46.025411
lwrist 9.919813
lhand -15.342037 46.040387
lfingers 7.125020
lthumb 10.798297 75.715541
rfemur -26.906397 -1.996483 18.014197
rtibia 42.204226
rfoot -9.697408 -11.324226
rtoes 1.723842
lfemur 1.194564 -3.296341 -29.668523
ltibia 21.352934
lfoot -15.598202 4.173890
ltoes -1.971461
3
root 9.273270 17.016600 -33.905900 1.770221 1.634016 -0.128776
lowerback 15.047812 -0.708425 -4.837244
upperback -0.208692 -1.757544 1.179957
thorax -8.391312 -0.575722 4.595673
lowerneck -13.400248 0.138295 -1.626668
upperneck 24.662201 1.401628 -3.382435
head 10.271456 0.127504 -0.740233
rclavicle -0.000000 0.000000
rhumerus -33.847672 -8.179845 -79.530553
rradius 33.860204
rwrist -1.610022
rhand -11.671447 10.232167
rfingers 7.125020
rthumb 14.357996 -19.210449
lclavicle -0.000000 0.000000
lhumerus -31.344786 2.803191 83.918854
lradius 46.095753
lwrist 9.504196
lhand -15.328742 45.581723
lfingers 7.125020
lthumb 10.819947 75.262280
rfemur -27.052203 -0.144801 17.323778
rtibia 36.433234
rfoot -11.069134 -12.940810
rtoes 1.435256
lfemur 3.889907 -3.188997 -29.611339
ltibia 18.857638
lfoot -14.945780 3.604299
ltoes -3.011429
4
root 9.268420 17.025800 -33.555600 1.900797 1.634016 -0.093738
lowerback 14.754684 -0.866083 -4.976592
upperback -0.364729 -1.972957 1.259993
thorax -8.377995 -0.667021 4.808374
lowerneck -13.087809 0.127208 -1.639965
upperneck 24.334738 1.330291 -3.251312
head 10.088835 0.117754 -0.700157
rclavicle -0.000000 0.000000
rhumerus -34.311233 -8.636747 -79.219514
rradius 33.288769
rwrist -0.831718
rhand -11.967978 10.408803
rfingers 7.125020
rthumb 14.073610 -19.044533
lclavicle -0.000000 0.000000
lhumerus -31.522705 2.533623 84.098843
lradius 46.171857
lwrist 9.104273
lhand -15.322503 45.130222
lfingers 7.125020
lthumb 10.834027 74.816849
rfemur -27.187300 1.436716 16.817910
rtibia 31.526489
rfoot -12.079869 -14.305906
rtoes 1.251140
lfemur 6.508011 -3.115384 -29.532946
ltibia 16.884118
lfoot -14.381146 3.048561
ltoes -3.931282
5
root 9.249270 17.016300 -33.220600 2.006738 1.634016 -0.063739
lowerback 14.455594 -1.021403 -5.096900
upperback -0.519485 -2.184245 1.338946
thorax -8.354000 -0.756369 5.018888
lowerneck -12.784667 0.115741 -1.646669
upperneck 24.009418 1.257873 -3.116939
head 9.907796 0.107795 -0.659788
rclavicle -0.000000 0.000000
rhumerus -34.832587 -9.114625 -78.893019
rradius 32.673645
rwrist -0.084351
rhand -12.260641 10.605533
rfingers 7.125020
rthumb 13.792726 -18.854604
lclavicle -0.000000 0.000000
lhumerus -31.728369 2.276576 84.274663
lradius 46.257631
lwrist 8.712420
lhand -15.323130 44.672715
lfingers 7.125020
lthumb 10.840966 74.366665
rfemur -27.317801 2.986168 16.381585
rtibia 26.980955
rfoot -12.916784 -15.576846
rtoes 1.118843
lfemur 9.108369 -3.071559 -29.428172
ltibia 15.088466
lfoot -13.848763 2.496647
ltoes -4.958219
6
root 9.246830 17.017700 -32.897400 2.120154 1.634016 0.050474
lowerback 14.146533 -1.182530 -5.207820
upperback -0.677938 -2.399131 1.424326
thorax -8.318470 -0.847777 5.232110
lowerneck -12.459506 0.103729 -1.647254
upperneck 23.682458 1.183298 -2.974002
head 9.725755 0.097491 -0.615504
rclavicle -0.000000 0.000000
rhumerus -35.439053 -9.648037 -78.513895
rradius 31.982361
rwrist 0.697013
rhand -12.554657 10.860921
rfingers 7.125020
rthumb 13.510350 -18.601135
lclavicle -0.000000 0.000000
lhumerus -31.974410 2.026351 84.451390
lradius 46.357477
lwrist 8.321166
lhand -15.330641 44.195855
lfingers 7.125020
lthumb 10.840975 73.899014
rfemur -27.449614 4.736824 15.915607
rtibia 22.330625
rfoot -13.734862 -16.900109
rtoes 1.000534
lfemur 11.750073 -3.055176 -29.290099
ltibia 13.157767
lfoot -13.296268 1.938595
ltoes -6.345889
7
root 9.219480 17.016100 -32.563300 1.983917 1.634016 -0.100705
lowerback 14.131350 -1.285357 -5.090659
upperback -0.497528 -2.499520 1.562927
thorax -8.023651 -0.917124 5.346016
lowerneck -13.303956 -0.031467 -1.649759
upperneck 24.052500 1.047581 -2.946002
head 10.089782 0.015911 -0.624757
rclavicle -0.000000 0.000000
rhumerus -35.870789 -10.739780 -77.581266
rradius 31.017228
rwrist 1.628830
rhand -12.451750 10.676552
rfingers 7.125020
rthumb 13.623639 -18.755445
lclavicle -0.000000 0.000000
lhumerus -32.373519 2.457703 84.519736
lradius 46.324615
lwrist 8.037086
lhand -15.377391 44.011643
lfingers 7.125020
lthumb 10.799031 73.719817
rfemur -26.854983 5.415602 16.505174
rtibia 22.235976
rfoot -12.103714 -16.259446
rtoes 2.861128
lfemur 13.828406 -3.313213 -28.784238
ltibia 13.632086
lfoot -12.440153 1.509693
ltoes -10.290616
